<svg width="54" height="54" viewBox="0 0 54 54" fill="none" xmlns="http://www.w3.org/2000/svg">
<g clip-path="url(#clip0)">
<path d="M22.2875 31.8598C21.9338 31.5061 21.3605 31.5061 21.0068 31.8598L17.4748 35.3922C17.121 35.7459 17.121 36.3196 17.4748 36.673C17.6519 36.8501 17.8833 36.9383 18.1151 36.9383C18.3469 36.9383 18.5788 36.85 18.7554 36.673L22.2874 33.1405C22.6413 32.7868 22.6413 32.2131 22.2875 31.8598Z" fill="#292929"/>
<path d="M46.6899 15.1441L39.0041 7.45828C38.6504 7.10456 38.0771 7.10456 37.7234 7.45828L21.6472 23.534C21.4774 23.7039 21.3818 23.9343 21.3818 24.1744C21.3818 24.4144 21.4774 24.6448 21.6472 24.8147L29.333 32.4999C29.5101 32.6771 29.7415 32.7653 29.9733 32.7653C30.2052 32.7653 30.4366 32.6769 30.6136 32.5003L46.6899 16.4246C46.8598 16.2548 46.9553 16.0243 46.9553 15.7843C46.9553 15.5443 46.8598 15.3139 46.6899 15.1441ZM29.9733 30.5796L23.5682 24.1745L38.3638 9.37947L44.7689 15.7845L29.9733 30.5796Z" fill="#292929"/>
<path d="M31.254 19.0506L29.9733 17.7698C29.6196 17.4161 29.0463 17.4161 28.6925 17.7698C28.3388 18.1235 28.3388 18.6968 28.6925 19.0506L29.9733 20.3313C30.1504 20.5084 30.3818 20.5967 30.6136 20.5967C30.8454 20.5967 31.0769 20.5083 31.2539 20.3313C31.6078 19.9777 31.6078 19.4043 31.254 19.0506Z" fill="#292929"/>
<path d="M34.4562 15.8483L33.1754 14.5676C32.8217 14.2139 32.2484 14.2139 31.8947 14.5676C31.541 14.9213 31.541 15.4946 31.8947 15.8483L33.1754 17.1291C33.3525 17.3062 33.5839 17.3945 33.8157 17.3945C34.0476 17.3945 34.2794 17.3061 34.456 17.1291C34.8097 16.7754 34.8097 16.2021 34.4562 15.8483Z" fill="#292929"/>
<path d="M37.6593 12.6464L36.3786 11.3653C36.0248 11.0115 35.4515 11.0115 35.0978 11.3653C34.7441 11.7185 34.7441 12.2923 35.0978 12.646L36.3786 13.9272C36.5557 14.1043 36.7871 14.1925 37.0189 14.1925C37.2503 14.1925 37.4822 14.1038 37.6592 13.9272C38.013 13.574 38.013 13.0001 37.6593 12.6464Z" fill="#292929"/>
<path d="M51.7928 8.76041L45.3877 2.35587C45.0458 2.01435 44.4919 2.01435 44.1496 2.35587L38.3853 8.11997C38.0434 8.46188 38.0434 9.01621 38.3853 9.35813L44.7899 15.7632C44.9539 15.9272 45.1766 16.0195 45.409 16.0195C45.6413 16.0195 45.864 15.9272 46.028 15.7632L51.7927 9.99857C51.9567 9.83458 52.049 9.61181 52.049 9.37949C52.049 9.14717 51.9568 8.92427 51.7928 8.76041ZM45.4091 13.9056L40.2431 8.73918L44.7687 4.21364L49.935 9.37962L45.4091 13.9056Z" fill="#292929"/>
<path d="M53.7348 10.6606L43.4874 0.412935C43.1337 0.0592136 42.5604 0.0592136 42.2067 0.412935C41.853 0.766657 41.853 1.33996 42.2067 1.69368L52.454 11.9414C52.6311 12.1185 52.8625 12.2068 53.0943 12.2068C53.3257 12.2068 53.5576 12.1184 53.7346 11.9414C54.0885 11.5877 54.0885 11.0144 53.7348 10.6606Z" fill="#292929"/>
<path d="M32.5351 28.0175L26.13 21.6129C25.7763 21.2592 25.203 21.2592 24.8493 21.6129C24.4956 21.9667 24.4956 22.54 24.8493 22.8937L31.2543 29.2978C31.4315 29.475 31.6629 29.5632 31.8946 29.5632C32.1264 29.5632 32.3584 29.4748 32.535 29.2982C32.8888 28.9446 32.8888 28.3712 32.5351 28.0175Z" fill="#292929"/>
<path d="M28.6709 29.32L24.8283 25.4773C24.4863 25.1358 23.9324 25.1358 23.5901 25.4773L19.107 29.9604C18.7651 30.3023 18.7651 30.8567 19.107 31.1986L22.9497 35.0412C23.1208 35.212 23.3445 35.2975 23.5687 35.2975C23.793 35.2975 24.0171 35.212 24.1878 35.0412L28.6709 30.5581C29.0128 30.2162 29.0128 29.6619 28.6709 29.32ZM23.5689 33.1834L20.9644 30.579L24.2093 27.334L26.8138 29.9385L23.5689 33.1834Z" fill="#292929"/>
<path d="M11.581 32.1147C10.8139 32.1147 10.1173 32.4445 9.50325 32.7357C9.01871 32.9654 8.5603 33.1823 8.20074 33.1823C7.84118 33.1823 7.38291 32.9654 6.89824 32.7357C6.28327 32.445 5.5871 32.1147 4.81995 32.1147C2.02707 32.1147 0 35.0399 0 39.0695C0 40.7682 0.383574 44.2852 1.0946 47.4587C2.37853 53.1893 3.83588 53.8523 4.81995 53.8523C6.19981 53.8523 6.568 52.0131 7.12459 49.2298C7.3723 47.9926 7.81743 45.7662 8.25634 45.1634C8.77763 45.7015 9.22463 48.2371 9.44607 49.4938C9.90845 52.1182 10.2132 53.8523 11.5809 53.8523C12.5645 53.8523 14.0219 53.1893 15.3062 47.4587C16.0172 44.2858 16.4008 40.7683 16.4008 39.0695C16.401 35.0399 14.3739 32.1147 11.581 32.1147ZM11.812 51.8842C11.5996 51.2818 11.3826 50.0496 11.2291 49.1791C10.7193 46.2839 10.192 43.2899 8.19623 43.2826C6.46491 43.2903 5.94719 45.878 5.34762 48.8742C5.15152 49.8566 4.87117 51.2572 4.6139 51.8917C3.36487 50.677 1.81146 43.1561 1.81146 39.069C1.81146 36.137 3.10482 33.9257 4.81995 33.9257C5.17951 33.9257 5.63779 34.1426 6.12153 34.3723C6.7365 34.663 7.43267 34.9932 8.19981 34.9932C8.96696 34.9932 9.66353 34.6635 10.2776 34.3723C10.7621 34.1426 11.2205 33.9257 11.5801 33.9257C13.2956 33.9257 14.5886 36.1366 14.5886 39.069C14.5886 43.15 13.0402 50.6537 11.812 51.8842Z" fill="#292929"/>
</g>
<defs>
<clipPath id="clip0">
<rect width="54" height="54" fill="white"/>
</clipPath>
</defs>
</svg>
