<svg width="114" height="141" viewBox="0 0 114 141" fill="none" xmlns="http://www.w3.org/2000/svg">
<path d="M113.338 33.1265C113.165 29.0435 110.216 24.7157 106.476 23.0606L56.9586 1.13732C55.3017 0.403858 53.1664 0 50.9456 0C48.7249 0 46.5899 0.403858 44.9331 1.13732L-4.58507 23.0606C-8.33285 24.7197 -11.2689 29.0573 -11.4138 33.1503C-11.4874 35.2133 -13.1012 83.8581 -3.9865 99.795C5.09291 115.67 43.2359 138.486 44.855 139.449C46.5354 140.45 48.706 141 50.9672 141C53.2101 141 55.365 140.457 57.0346 139.471C58.6692 138.507 97.1609 115.675 106.244 99.794C115.364 83.8477 113.426 35.1904 113.338 33.1265Z" fill="#F8F8F8"/>
<path d="M69.6582 29.7129C64.3336 29.7129 58.7205 32.8063 54.617 35.0682C53.6384 35.6075 51.6799 36.9148 51 36.9145C50.3248 36.9145 48.374 35.6108 47.3961 35.0709C43.306 32.8097 37.7047 29.7129 32.3418 29.7129C25.5662 29.7129 19.3461 32.4966 14.8279 37.5515C10.5455 42.342 8.18652 48.6425 8.18652 55.2941C8.18652 64.5969 11.5163 77.7972 17.0941 90.6034C19.5792 96.3082 22.228 101.243 24.7548 104.876C27.903 109.402 30.6904 111.602 33.2766 111.602C34.5188 111.602 36.7857 111.098 38.0057 107.724C39.0216 104.917 39.9315 101.709 40.8993 98.2966C43.0979 90.5433 46.4209 78.8257 50.8393 78.8257H51.1611C53.0472 78.8257 54.8113 80.598 56.5532 84.2435C58.4061 88.1205 59.8299 93.333 61.208 98.3752C62.1307 101.753 63.0023 104.943 63.9896 107.712C65.1878 111.072 67.4351 111.575 68.6692 111.576C71.2464 111.576 74.0325 109.343 77.1864 104.749C79.7071 101.078 82.361 96.0952 84.8602 90.34C90.4659 77.4347 93.8121 64.3338 93.8121 55.2947C93.8121 48.6432 91.4535 42.342 87.1714 37.5522C82.6539 32.4966 76.4341 29.7129 69.6582 29.7129ZM80.0874 88.2693C77.751 93.6485 75.197 98.4558 72.8962 101.807C70.8483 104.789 70.287 105.106 69.2234 106.058C69.0842 106.182 68.9503 106.127 68.8925 105.967C67.9684 103.388 67.125 100.287 66.2272 97.0017C64.7906 91.7414 63.3043 86.3018 61.25 82.0028C58.5558 76.3659 55.2556 73.6253 51.1611 73.6253H50.8393C46.8813 73.6253 43.6524 76.3441 40.9666 81.9373C38.921 86.1973 37.3782 91.6376 35.8824 96.9123C34.9476 100.209 34.0649 103.322 33.1125 105.953C33.0705 106.069 33.0036 106.323 32.7406 106.245C32.096 106.055 31.112 104.902 29.0282 101.906C26.726 98.5969 24.1828 93.8457 21.8658 88.5277C16.6381 76.5242 13.3907 63.7892 13.3907 55.293C13.3907 45.2742 20.479 34.9113 32.3415 34.9113C35.4069 34.9113 39.4708 36.3288 43.2119 38.7036C43.7503 39.0456 44.5358 39.6487 45.2951 40.2324C45.6051 40.4709 45.9108 40.7051 46.1963 40.9201C47.1258 41.6153 48.3808 42.5241 49.858 43.3923C50.6402 43.8543 51.3521 44.2642 52.1554 44.6042C55.3736 45.9694 58.7858 46.6615 62.2975 46.6615C65.9131 46.6615 73.3619 45.1307 73.3619 44.2985C73.3619 43.731 64.5707 44.7947 58.2043 42.3555C57.1949 41.9687 55.1352 41.2958 55.1352 41.0317C55.1352 40.8425 55.3218 40.6712 55.5064 40.5603C55.9607 40.2888 56.4745 39.9817 57.137 39.6165C60.7388 37.6308 65.672 34.9113 69.6575 34.9113C81.5196 34.9113 88.6083 45.2742 88.6083 55.293C88.609 63.5305 85.3434 76.166 80.0874 88.2693Z" fill="#EEEEEE"/>
<path d="M83.4998 38.5C82.6998 37.7 78.4998 34.8334 76.4998 33.5C74.4998 33 69.8998 32.1 67.4998 32.5C64.4999 32.9999 58.5003 35.9997 57.4998 36.5C56.4998 37 49.4998 38.5 48.9998 39C48.4998 39.4999 42.4998 35.5 41.9998 35C41.4998 34.5 34.9998 32.5 32.9998 32C30.9998 31.5 25.9998 32.5 24.4998 33.5C22.9998 34.5 16.4998 37 14.4998 39.5C12.4998 42 10.9998 47 10.9998 49V58.5C10.9998 60 12.9998 68.5 13.4998 71.5C13.9998 74.5 16.4998 81 17.4998 84C18.4998 87 21.9998 95.5 22.4998 97C22.9998 98.5 27.4998 105.5 27.9998 107C28.4998 108.5 32.4998 109 33.4998 109C34.4998 109 35.4998 106 35.9998 105.5C36.4998 105 37.4998 100 37.9998 98.5C38.4998 97 39.9998 89.5 39.9998 88C39.9998 86.5 43.9998 81 44.4998 80C44.8998 79.2 47.3331 77.3334 48.4998 76.5C50.4998 76.3334 54.5998 76.1 54.9998 76.5C55.4998 77 57.9998 81 57.9998 83C57.9998 85 62.4998 92 62.9998 94.5C63.4998 97 65.4998 104 65.4998 105.5C65.4998 106.7 67.8331 109 68.9998 110C70.3331 108.5 73.1998 105.2 73.9998 104C74.9998 102.5 80.9998 94 80.9998 93.5C80.9998 93.1 83.9998 85 85.4998 81C86.8331 76.5 89.5998 67.2 89.9998 66C90.4998 64.5 90.9998 57 90.4998 54.5C89.9998 52 88.4998 46 87.9998 44.5C87.4998 43 84.4998 39.5 83.4998 38.5Z" fill="#EEEEEE"/>
</svg>
