<svg width="46" height="54" viewBox="0 0 46 54" fill="none" xmlns="http://www.w3.org/2000/svg">
<path d="M12 25.983H11V27.983H12V25.983ZM34 27.983H35V25.983H34V27.983ZM12 37.1429H11V39.1429H12V37.1429ZM34 39.1429H35V37.1429H34V39.1429ZM12 14.8474H11V16.8474H12V14.8474ZM34 16.8474H35V14.8474H34V16.8474ZM45 12.1429H46V11.7324L45.7117 11.4403L45 12.1429ZM34 1L34.7117 0.29747L34.418 0H34V1ZM12 27.983H34V25.983H12V27.983ZM12 39.1429H34V37.1429H12V39.1429ZM12 16.8474H34V14.8474H12V16.8474ZM41.3333 52H4.66667V54H41.3333V52ZM2 49.2857V4.71429H0V49.2857H2ZM44 12.1429V49.2857H46V12.1429H44ZM4.66667 2H34V0H4.66667V2ZM33.2883 1.70253L44.2883 12.8454L45.7117 11.4403L34.7117 0.29747L33.2883 1.70253ZM4.66667 52C3.20603 52 2 50.797 2 49.2857H0C0 51.8771 2.07721 54 4.66667 54V52ZM41.3333 54C43.9228 54 46 51.8771 46 49.2857H44C44 50.797 42.794 52 41.3333 52V54ZM2 4.71429C2 3.20302 3.20603 2 4.66667 2V0C2.07721 0 0 2.12286 0 4.71429H2Z" fill="#292929"/>
</svg>
