<svg width="54" height="54" viewBox="0 0 54 54" fill="none" xmlns="http://www.w3.org/2000/svg">
<path d="M35.2785 0C33.7096 0 32.2194 0.706294 30.7785 1.38859C29.4473 2.01906 28.1907 2.6143 27 2.6143C25.8093 2.6143 24.5525 2.01906 23.2215 1.38859C21.7806 0.705911 20.2909 0 18.7214 0C12.6789 0 8.29297 6.58501 8.29297 15.6571C8.29297 18.3502 8.68294 22.6306 9.33562 27.1072C9.39613 27.5207 9.75087 27.828 10.1696 27.828H43.8304C44.2491 27.828 44.6038 27.5208 44.6643 27.1072C45.317 22.6306 45.707 18.3506 45.707 15.6571C45.707 6.5845 41.3207 0 35.2785 0ZM43.1001 26.143H10.8999C10.3203 22.0094 9.97835 18.1306 9.97835 15.6565C9.97835 7.56052 13.6553 1.68487 18.7214 1.68487C19.9118 1.68487 21.1689 2.28049 22.4999 2.91057C23.9408 3.59338 25.4305 4.29916 27 4.29916C28.5695 4.29916 30.0591 3.59325 31.5001 2.91096C32.8312 2.28049 34.0882 1.68525 35.2785 1.68525C40.3446 1.68525 44.0216 7.56091 44.0216 15.6569C44.0216 18.1302 43.6796 22.0094 43.1001 26.143Z" fill="#292929"/>
<path d="M34.4071 26.1142H19.5927C19.1112 26.1142 18.7212 26.5046 18.7212 26.9857V33.0857C18.7212 33.274 18.7822 33.4575 18.8954 33.6086L21.3355 36.862V49.6429C21.3355 49.9213 21.4688 50.1836 21.6946 50.3474L26.4875 53.8331C26.64 53.9442 26.8204 54 26.9999 54C27.1794 54 27.3597 53.9442 27.5123 53.8331L32.3052 50.3474C32.5305 50.1836 32.6643 49.9216 32.6643 49.6429V36.8619L35.1043 33.6085C35.2172 33.4577 35.2786 33.2743 35.2786 33.0856V26.9855C35.2784 26.5046 34.8885 26.1142 34.4071 26.1142ZM33.5356 32.7949L31.0956 36.0484C30.9827 36.1991 30.9213 36.3826 30.9213 36.5712V49.1988L26.9999 52.051L23.0784 49.1988V36.5712C23.0784 36.383 23.0174 36.1995 22.9042 36.0484L20.4641 32.7949V27.857H33.5356V32.7949Z" fill="#292929"/>
<path d="M20.464 3.45685C16.139 3.45685 12.6211 6.9753 12.6211 11.2997C12.6211 11.7807 13.0111 12.1712 13.4926 12.1712C13.9741 12.1712 14.364 11.7809 14.364 11.2997C14.364 7.936 17.1008 5.19967 20.4641 5.19967C20.9456 5.19967 21.3356 4.80931 21.3356 4.3282C21.3356 3.84708 20.9455 3.45685 20.464 3.45685Z" fill="#292929"/>
<path d="M32.0905 40.1097L22.5048 36.624C22.0507 36.4588 21.5527 36.6933 21.3884 37.1451C21.2233 37.5973 21.4572 38.0971 21.9091 38.2617L31.4948 41.7475C31.5938 41.7832 31.694 41.8002 31.7929 41.8002C32.1484 41.8002 32.4831 41.5801 32.6111 41.2264C32.7763 40.7743 32.5423 40.2745 32.0905 40.1097Z" fill="#292929"/>
<path d="M32.0905 44.467L22.5048 40.9812C22.0507 40.8174 21.5527 41.05 21.3884 41.5023C21.2233 41.9545 21.4572 42.4543 21.9091 42.619L31.4948 46.1048C31.5938 46.1405 31.694 46.1575 31.7929 46.1575C32.1484 46.1575 32.4831 45.9374 32.6111 45.5837C32.7763 45.1314 32.5423 44.6317 32.0905 44.467Z" fill="#292929"/>
<path d="M32.0905 48.8241L22.5048 45.3384C22.0507 45.1737 21.5527 45.4077 21.3884 45.8594C21.2233 46.3117 21.4572 46.8115 21.9091 46.9761L31.4948 50.4619C31.5938 50.4977 31.694 50.5146 31.7929 50.5146C32.1484 50.5146 32.4831 50.2946 32.6111 49.9408C32.7763 49.4886 32.5423 48.9888 32.0905 48.8241Z" fill="#292929"/>
</svg>
