<svg width="60" height="67" viewBox="0 0 60 67" fill="none" xmlns="http://www.w3.org/2000/svg">
<path d="M59.6852 15.7409C59.6027 13.8008 58.1984 11.7443 56.4176 10.9579L32.8377 0.540429C32.0487 0.191904 31.0319 0 29.9744 0C28.9169 0 27.9002 0.191904 27.1112 0.540429L3.53117 10.9579C1.74652 11.7462 0.348414 13.8074 0.279398 15.7523C0.244329 16.7326 -0.524138 39.8475 3.81621 47.4203C8.13974 54.9637 26.3031 65.8053 27.0741 66.263C27.8743 66.7385 28.9079 66.9998 29.9846 66.9998C31.0527 66.9998 32.0788 66.742 32.8739 66.2736C33.6523 65.8155 51.9816 54.9661 56.3068 47.4198C60.6498 39.8425 59.7268 16.7217 59.6852 15.7409Z" fill="white"/>
<path d="M38.885 14.1189C36.3495 14.1189 33.6766 15.5888 31.7225 16.6636C31.2565 16.9199 30.3239 17.5411 30.0002 17.5409C29.6786 17.5409 28.7497 16.9215 28.284 16.6649C26.3364 15.5904 23.6691 14.1189 21.1153 14.1189C17.8888 14.1189 14.9269 15.4416 12.7754 17.8436C10.7361 20.12 9.61279 23.1138 9.61279 26.2745C9.61279 30.695 11.1984 36.9675 13.8545 43.0527C15.0379 45.7635 16.2992 48.1082 17.5024 49.8346C19.0016 51.9854 20.3289 53.0309 21.5605 53.0309C22.152 53.0309 23.2314 52.7914 23.8124 51.188C24.2961 49.8541 24.7295 48.3299 25.1903 46.7083C26.2373 43.0241 27.8197 37.4562 29.9236 37.4562H30.0769C30.975 37.4562 31.8151 38.2984 32.6446 40.0306C33.5269 41.8729 34.2049 44.3497 34.8611 46.7457C35.3005 48.3505 35.7156 49.8666 36.1857 51.1825C36.7562 52.779 37.8264 53.0178 38.4141 53.0182C39.6413 53.0182 40.968 51.9571 42.4699 49.7743C43.6702 48.0298 44.934 45.6622 46.1241 42.9275C48.7934 36.7952 50.3869 30.57 50.3869 26.2748C50.3869 23.1141 49.2637 20.12 47.2246 17.8439C45.0734 15.4416 42.1117 14.1189 38.885 14.1189ZM43.8513 41.9436C42.7387 44.4996 41.5225 46.784 40.4269 48.3762C39.4517 49.7935 39.1845 49.9439 38.678 50.3962C38.6117 50.4554 38.5479 50.4294 38.5204 50.3529C38.0804 49.1277 37.6788 47.6543 37.2512 46.093C36.5671 43.5934 35.8594 41.0086 34.8811 38.9659C33.5981 36.2874 32.0266 34.9851 30.0769 34.9851H29.9236C28.0389 34.9851 26.5013 36.277 25.2223 38.9347C24.2483 40.959 23.5136 43.5441 22.8013 46.0505C22.3562 47.6171 21.9358 49.0962 21.4823 50.3467C21.4623 50.4017 21.4304 50.5221 21.3052 50.4851C20.9983 50.395 20.5297 49.8471 19.5374 48.4236C18.4411 46.851 17.2301 44.5934 16.1268 42.0664C13.6374 36.3626 12.091 30.3112 12.091 26.274C12.091 21.5133 15.4664 16.5891 21.1151 16.5891C22.5749 16.5891 24.5101 17.2626 26.2915 18.3911C26.5479 18.5536 26.922 18.8402 27.2835 19.1175C27.4312 19.2309 27.5767 19.3421 27.7127 19.4443C28.1553 19.7746 28.7529 20.2065 29.4564 20.6191C29.8288 20.8386 30.1678 21.0334 30.5504 21.1949C32.0828 21.8436 33.7077 22.1725 35.3799 22.1725C37.1016 22.1725 40.6487 21.4451 40.6487 21.0496C40.6487 20.78 36.4624 21.2855 33.4308 20.1264C32.9501 19.9426 31.9693 19.6228 31.9693 19.4973C31.9693 19.4074 32.0582 19.326 32.1461 19.2733C32.3624 19.1443 32.6071 18.9984 32.9225 18.8249C34.6377 17.8813 36.9868 16.5891 38.8847 16.5891C44.5333 16.5891 47.9089 21.5133 47.9089 26.274C47.9092 30.1882 46.3542 36.1924 43.8513 41.9436Z" fill="#292929"/>
</svg>
