<svg width="80" height="100" viewBox="0 0 80 100" fill="none" xmlns="http://www.w3.org/2000/svg">
<circle opacity="0.05" cx="40" cy="60" r="39.5" stroke="black"/>
<circle opacity="0.15" cx="40" cy="60" r="29.5" stroke="black"/>
<circle opacity="0.25" cx="40" cy="60" r="19.5" stroke="black"/>
<circle opacity="0.35" cx="40" cy="60" r="9.5" stroke="black"/>
<path d="M37.9967 58.6521L22.3655 29.4338C18.2087 21.6639 19.6272 12.0889 25.8582 5.85777C33.6686 -1.95259 46.3316 -1.95259 54.1418 5.85777C60.3728 12.0888 61.7913 21.6637 57.6345 29.4338L42.0035 58.6521C41.1472 60.2524 38.8529 60.2524 37.9967 58.6521Z" fill="#575757"/>
<path d="M43.9384 55.0357L42.0035 58.6523C41.1474 60.2527 38.8529 60.2527 37.9968 58.6523L22.3655 29.434C18.2087 21.6641 19.6272 12.0891 25.8582 5.85797C30.7702 0.945975 37.6016 -0.876806 43.9382 0.389629C40.1993 1.13683 36.6328 2.95976 33.7346 5.85797C27.5036 12.089 26.0851 21.6641 30.2419 29.434L43.9384 55.0357Z" fill="#292929"/>
<path d="M53.6073 19.7129C53.6073 27.6601 47.1648 34.1025 39.2177 34.1025C31.2706 34.1025 24.8281 27.6601 24.8281 19.7129C24.8281 11.7658 31.2706 5.32336 39.2177 5.32336C47.1648 5.32336 53.6073 11.7658 53.6073 19.7129Z" fill="#ECECF1"/>
<path d="M53.6073 19.7129C53.6073 21.6071 53.2413 23.4156 52.5762 25.0719C50.9199 25.737 49.1113 26.103 47.2172 26.103C39.2701 26.103 32.8276 19.6605 32.8276 11.7134C32.8276 9.81928 33.1936 8.01073 33.8587 6.35442C35.515 5.68931 37.3235 5.32336 39.2177 5.32336C47.1648 5.32336 53.6073 11.7658 53.6073 19.7129Z" fill="#FFF5F5"/>
<path d="M46.799 19.8685L43.4138 28.7547C43.1287 29.5031 42.2222 29.7929 41.5559 29.3486C41.2541 29.1475 41.055 28.8251 41.01 28.4652L40.6867 25.8789C40.6867 25.8789 40.6466 24.5714 40.1243 23.5663C39.6502 22.654 38.3481 22.6446 37.8926 23.5663C37.4691 24.4233 37.3396 25.8047 37.3396 25.8047L37.0069 28.4652C36.962 28.825 36.7628 29.1475 36.461 29.3486C35.7947 29.7929 34.8882 29.5031 34.6031 28.7547L31.2179 19.8685C30.7005 18.5102 30.6121 17.0258 30.9645 15.6158L31.6352 12.933C31.9485 11.6803 33.2073 10.9093 34.4654 11.1997L35.7235 11.4901C36.2104 11.6025 36.7187 11.5519 37.1787 11.3569C38.3688 10.8527 39.6481 10.8527 40.8382 11.3569C41.2982 11.5519 41.8066 11.6025 42.2934 11.4901L43.5515 11.1997C44.8097 10.9093 46.0686 11.6803 46.3817 12.933L47.0524 15.6158C47.4049 17.0258 47.3164 18.5101 46.799 19.8685Z" fill="#B9B9BE"/>
<path d="M43.038 29.2767C42.6309 29.6084 42.0323 29.6658 41.5561 29.3484C41.2543 29.1472 41.0552 28.8249 41.0102 28.465L40.6869 25.8786C40.6869 25.8786 40.6468 24.5712 40.1245 23.566C39.891 23.1165 39.4562 22.8862 39.0208 22.8785C39.8949 22.7064 41.391 22.9647 41.7034 23.566C42.2257 24.571 42.2658 25.8786 42.2658 25.8786L42.5891 28.465C42.6289 28.7847 42.7908 29.075 43.038 29.2767ZM33.2645 19.8684C32.7471 18.5101 32.6586 17.0257 33.0111 15.6157L33.6818 12.9329C33.8676 12.1892 34.3869 11.6152 35.0414 11.3324L34.4655 11.1995C33.2072 10.9091 31.9484 11.6801 31.6353 12.9327L30.9646 15.6155C30.6121 17.0257 30.7004 18.51 31.218 19.8682L34.6032 28.7544C34.8882 29.5029 35.7948 29.7926 36.4611 29.3484C36.5921 29.261 36.7037 29.1508 36.7919 29.0245C36.7351 28.9427 36.6869 28.8526 36.6497 28.7544L33.2645 19.8684Z" fill="#A0A0A5"/>
<path d="M42.8966 19.9922C42.1744 19.3441 42.8812 18.3008 42.6134 16.3282C42.4339 15.0058 42.0052 14.6388 42.3124 14.0929C42.6803 13.4394 43.7865 13.1269 44.5229 13.4613C45.9315 14.1011 45.5499 16.8641 45.5098 17.1323C45.3057 18.4936 44.5023 20.2659 43.5479 20.2683C43.2123 20.2694 42.9624 20.0511 42.8966 19.9922Z" fill="#ECECF1"/>
</svg>
