<svg width="54" height="54" viewBox="0 0 54 54" fill="none" xmlns="http://www.w3.org/2000/svg">
<path d="M16.5944 47.6857H1.68709V34.6059C3.09448 34.2782 6.9639 33.6534 11.85 35.1333C12.4715 35.3214 13.1751 35.5902 14.0007 35.9547C14.4293 36.1442 14.9263 35.9505 15.1141 35.524C15.3022 35.0978 15.1094 34.5993 14.6833 34.4115C13.7818 34.0137 13.0368 33.7298 12.3398 33.5184C5.63746 31.4887 0.776678 33.0915 0.571632 33.1606C0.229889 33.277 0 33.5985 0 33.9596V48.5295C0 48.9952 0.377586 49.3733 0.843791 49.3733H16.5949C17.0611 49.3733 17.4382 48.9954 17.4382 48.5295C17.4382 48.0637 17.0606 47.6857 16.5944 47.6857Z" fill="#292929"/>
<path d="M28.9097 47.6857H22.4605C21.9943 47.6857 21.6167 48.0637 21.6167 48.5295C21.6167 48.9954 21.9943 49.3733 22.4605 49.3733H28.9097C29.3763 49.3733 29.7535 48.9954 29.7535 48.5295C29.7535 48.0637 29.3759 47.6857 28.9097 47.6857Z" fill="#292929"/>
<path d="M50.0535 33.1602C49.8481 33.0915 44.9893 31.4879 38.2853 33.5171C37.6773 33.7015 37.0116 33.95 36.2493 34.2769C35.8207 34.4608 35.6228 34.9569 35.8067 35.3852C35.9906 35.8134 36.4855 36.0104 36.915 35.8278C37.6186 35.5261 38.2266 35.2988 38.7746 35.1325C43.6625 33.6535 47.5319 34.2791 48.9375 34.606V47.6858H34.1944C33.7282 47.6858 33.3506 48.0638 33.3506 48.5296C33.3506 48.9954 33.7282 49.3734 34.1944 49.3734H49.7813C50.2475 49.3734 50.6251 48.9958 50.6251 48.5292V33.9592C50.6251 33.5976 50.3956 33.2761 50.0535 33.1602Z" fill="#292929"/>
<path d="M25.3125 13.092C24.8463 13.092 24.4688 13.47 24.4688 13.9358V17.3109C24.4688 17.7766 24.8463 18.1547 25.3125 18.1547C25.7787 18.1547 26.1563 17.7771 26.1563 17.3109V13.9358C26.1563 13.47 25.7787 13.092 25.3125 13.092Z" fill="#292929"/>
<path d="M30.6168 21.5577C29.5744 21.5577 28.6167 22.0112 27.6907 22.45C26.8925 22.8279 26.1386 23.1849 25.4636 23.1849C24.7882 23.1849 24.0344 22.8279 23.2365 22.45C22.3101 22.0112 21.3528 21.5577 20.3104 21.5577C16.381 21.5577 13.5283 25.779 13.5283 31.5946C13.5283 34.8536 15.3976 53.5642 20.3104 53.5642C21.9503 53.5642 22.4751 50.9418 23.2694 46.9724C23.6386 45.125 24.6198 40.2174 25.4602 40.214C26.6557 40.2182 27.4771 44.8816 27.918 47.3867C28.5727 51.1068 29.0064 53.5642 30.6164 53.5642C35.5291 53.5642 37.3984 34.8536 37.3988 31.5946C37.3989 25.779 34.5462 21.5577 30.6168 21.5577ZM30.7256 51.9226C30.2779 51.3805 29.8274 48.8206 29.525 47.1034C28.7876 42.9185 28.0253 38.5913 25.4603 38.5825C23.2818 38.5921 22.5345 42.3271 21.6693 46.6526C21.2905 48.5485 20.7235 51.3822 20.2126 51.9247C17.9134 51.5522 15.1599 38.2222 15.1599 31.5945C15.1599 26.8024 17.3739 23.1891 20.3105 23.1891C20.986 23.1891 21.7398 23.5455 22.5376 23.9236C23.4641 24.3624 24.4212 24.8159 25.4638 24.8159C26.5053 24.8159 27.463 24.3624 28.389 23.924C29.1872 23.546 29.9411 23.1887 30.617 23.1887C33.5536 23.1887 35.7676 26.8025 35.7676 31.5941C35.7675 38.2113 33.0228 51.5092 30.7256 51.9226Z" fill="#292929"/>
<path d="M21.2446 24.0609C18.4531 24.0609 16.1821 26.3318 16.1821 29.1233C16.1821 29.589 16.5597 29.9671 17.0259 29.9671C17.4925 29.9671 17.8697 29.5895 17.8697 29.1233C17.8697 27.2625 19.3834 25.7483 21.2447 25.7483C21.711 25.7483 22.0885 25.3703 22.0885 24.9045C22.0885 24.4387 21.7108 24.0609 21.2446 24.0609Z" fill="#292929"/>
<path d="M30.375 0.435791H20.25C19.7838 0.435791 19.4062 0.813748 19.4062 1.27958V8.87913C19.4062 12.1327 22.056 14.7795 25.3125 14.7795C28.5691 14.7795 31.2188 12.1327 31.2188 8.87913V1.27958C31.2188 0.813748 30.8413 0.435791 30.375 0.435791ZM29.5313 8.87913C29.5313 11.2024 27.6387 13.092 25.3125 13.092C22.9863 13.092 21.0938 11.2025 21.0938 8.87913V2.12325H29.5314V8.87913H29.5313Z" fill="#292929"/>
<path d="M25.3125 6.3421H21.0938C20.6276 6.3421 20.25 6.72006 20.25 7.18589C20.25 7.65172 20.6276 8.02968 21.0938 8.02968H25.3125C25.7787 8.02968 26.1563 7.65172 26.1563 7.18589C26.1563 6.72006 25.7787 6.3421 25.3125 6.3421Z" fill="#292929"/>
<path d="M25.3125 16.467C23.9165 16.467 22.7812 17.6023 22.7812 18.9983C22.7812 20.3943 23.9165 21.5295 25.3125 21.5295C26.7085 21.5295 27.8437 20.3943 27.8437 18.9983C27.8437 17.6023 26.7085 16.467 25.3125 16.467ZM25.3125 19.842C24.8468 19.842 24.4687 19.4635 24.4687 18.9982C24.4687 18.5328 24.8467 18.1544 25.3125 18.1544C25.7783 18.1544 26.1563 18.5328 26.1563 18.9982C26.1563 19.4636 25.7782 19.842 25.3125 19.842Z" fill="#292929"/>
<path d="M53.1563 2.96704H30.375C29.9088 2.96704 29.5312 3.345 29.5312 3.81083V7.18587C29.5312 7.65158 29.9088 8.02966 30.375 8.02966H53.1563C53.6225 8.02966 54.0001 7.65207 54.0001 7.18587V3.81083C54.0001 3.345 53.6225 2.96704 53.1563 2.96704ZM52.3125 6.34208H31.2188V4.6545H52.3126V6.34208H52.3125Z" fill="#292929"/>
</svg>
